PathFileType	4	(X/Y/Z)	C:/Users/opensim2020/Desktop/walking_exp_matlab/subject01_walking05_straight_03.trc	
DataRate	CameraRate	NumFrames	NumMarkers	Units	OrigDataRate	OrigDataStartFrame	OrigNumFrames	
100.00	100.00	4	43	mm	100.00	2162	223	
Frame#	Time	LFHD			RFHD			LBHD			RBHD			C7			T10			CLAV			STRN			RBAK			LSHO			LUPA			LELB			LFRM			LWRA			LWRB			LFIN			RSHO			RUPA			RELB			RFRM			RWRA			RWRB			RFIN			LASI			RASI			LPSI			RPSI			LTHI			LKNE			LTIB			LANK			LHEE			LTOE			RTHI			RKNE			RTIB			RANK			RHEE			RTOE			*39			*40			*41			*42			
		X1	Y1	Z1	X2	Y2	Z2	X3	Y3	Z3	X4	Y4	Z4	X5	Y5	Z5	X6	Y6	Z6	X7	Y7	Z7	X8	Y8	Z8	X9	Y9	Z9	X10	Y10	Z10	X11	Y11	Z11	X12	Y12	Z12	X13	Y13	Z13	X14	Y14	Z14	X15	Y15	Z15	X16	Y16	Z16	X17	Y17	Z17	X18	Y18	Z18	X19	Y19	Z19	X20	Y20	Z20	X21	Y21	Z21	X22	Y22	Z22	X23	Y23	Z23	X24	Y24	Z24	X25	Y25	Z25	X26	Y26	Z26	X27	Y27	Z27	X28	Y28	Z28	X29	Y29	Z29	X30	Y30	Z30	X31	Y31	Z31	X32	Y32	Z32	X33	Y33	Z33	X34	Y34	Z34	X35	Y35	Z35	X36	Y36	Z36	X37	Y37	Z37	X38	Y38	Z38	X39	Y39	Z39	X40	Y40	Z40	X41	Y41	Z41	X42	Y42	Z42	X43	Y43	Z43	

84	0.830	-1106.48962	-427.04224	1665.10889	-994.14935	-410.62848	1678.27625	-1091.48914	-529.42102	1593.86389	-971.93927	-514.43585	1605.62903	-1043.42590	-534.84503	1416.86035	-1027.25122	-559.17273	1124.45264	-1047.36487	-386.86295	1356.91174	-1047.85388	-337.97028	1202.97656	-957.95038	-579.38068	1222.84949	-1205.83923	-459.14932	1377.17639	-1279.54919	-505.21866	1191.39807	-1271.84888	-530.86389	1044.36072	-1293.05408	-511.18280	932.01154	-1270.77942	-453.33026	805.23242	-1295.38416	-508.70557	809.32861	-1298.01367	-475.94467	730.12695	-896.36230	-450.09766	1388.40979	-783.44855	-489.93881	1192.32922	-769.12823	-474.66568	1068.07349	-733.00793	-416.74496	962.55084	-747.34314	-305.39346	874.39856	-708.62579	-347.90866	864.00256	-705.96619	-289.60489	802.07428	-1126.96277	-378.11597	922.46680	-910.50092	-391.53760	916.65790	-1090.35266	-568.13055	935.84918	-945.77356	-575.26068	939.91650	-1180.55994	-335.93924	605.98517	-1157.52441	-315.44781	474.57132	-1172.52698	-329.21466	284.82538	-1116.35901	-323.86929	67.58910	-1065.32483	-369.14752	38.42236	-1113.30542	-176.03514	37.61298	-859.34460	-498.27896	590.04486	-876.15558	-525.09753	430.29388	-888.55688	-661.96558	315.52057	-946.00732	-784.78607	149.96614	-1005.59180	-833.83698	148.58647	-949.66083	-698.92090	31.12273	-1016.66919	-431.35220	1706.46509	-3102.17554	1972.88452	1024.14661	-3140.34570	2012.47009	1021.94238			 
85	0.840	-1108.24219	-418.03198	1666.16931	-995.66113	-401.38562	1679.33667	-1093.13330	-520.53918	1595.05530	-973.56641	-505.58670	1606.94592	-1044.89587	-525.65057	1417.76672	-1028.46741	-549.86090	1125.50562	-1048.72046	-377.95792	1358.17212	-1049.19836	-328.78775	1204.35706	-959.10144	-570.26318	1223.91382	-1207.18591	-450.20731	1378.27930	-1280.95337	-494.64682	1192.23877	-1273.57959	-519.00433	1045.09546	-1294.90564	-498.30902	932.97894	-1272.82898	-439.31778	806.87854	-1297.29578	-494.80301	810.25739	-1300.12646	-461.21948	731.25415	-897.63464	-441.51303	1389.61707	-785.18256	-482.16318	1193.49060	-771.20502	-467.46082	1069.37000	-734.72937	-411.14047	963.14166	-748.72968	-301.75241	872.63550	-709.95667	-344.47552	863.23529	-707.23535	-287.39291	800.04205	-1128.83801	-368.77481	924.21130	-912.32129	-381.50949	918.18958	-1090.74658	-558.76270	936.88568	-945.95111	-564.85876	940.75244	-1180.26794	-326.52234	606.77454	-1158.17004	-309.37219	474.38202	-1172.22070	-325.51144	284.72607	-1116.28833	-323.39655	67.78567	-1065.34314	-368.99942	38.47247	-1113.29004	-175.43105	36.93470	-857.98090	-482.39297	589.98315	-873.48761	-507.38922	430.08908	-887.79779	-646.67145	318.91992	-945.92456	-773.86438	157.76939	-1006.73273	-820.70087	159.91232	-950.90302	-698.77429	31.38900	-1018.44049	-422.34528	1707.73047	-3102.07739	1973.04919	1023.54340	-3140.49292	2012.52026	1021.94049			 
86	0.850	-1109.75513	-409.07056	1667.04626	-997.36078	-392.51419	1680.26099	-1094.69312	-511.57675	1596.11975	-975.12109	-496.72855	1608.14880	-1046.27356	-516.57660	1418.76965	-1029.58801	-540.70557	1126.58813	-1050.09937	-368.99588	1359.49585	-1050.50012	-319.74603	1205.60046	-960.02869	-561.48004	1225.15149	-1208.44946	-441.13385	1379.46863	-1282.44653	-484.11261	1193.25330	-1275.41589	-507.22119	1045.91052	-1296.75122	-485.28610	934.06915	-1274.57129	-425.23764	808.48071	-1299.26404	-480.57944	811.40936	-1302.04053	-446.29001	732.77740	-899.09766	-432.64056	1390.84045	-786.71246	-474.46567	1194.76489	-773.23749	-460.51181	1070.70044	-736.52924	-406.35132	963.46259	-750.11609	-298.30444	870.99500	-711.31000	-341.28085	862.55750	-708.62512	-285.33170	798.04517	-1130.60193	-359.87256	925.78375	-914.22339	-371.77054	919.70148	-1091.14941	-549.68475	937.85992	-946.31573	-555.03503	941.59760	-1181.02393	-319.31229	607.30829	-1158.96790	-304.00845	474.33038	-1172.25818	-322.55713	284.67209	-1116.05518	-323.00839	67.92155	-1065.33594	-368.93381	38.54118	-1112.86426	-174.89163	36.47184	-856.55396	-466.02872	589.72803	-871.39868	-488.67273	429.98706	-887.05988	-631.07184	322.71512	-945.58923	-761.87476	165.00504	-1007.28918	-806.75269	170.45522	-951.95441	-697.98376	32.42199	-1020.00500	-413.37842	1708.91541	-3102.01294	1973.09607	1023.67053	-3140.39917	2012.61230	1022.05994			 
87	0.860	-1111.16113	-400.06369	1667.89294	-998.25555	-383.36017	1681.81775	-1096.20459	-502.71973	1597.12500	-976.58740	-487.82782	1609.16309	-1047.64453	-507.82407	1419.79443	-1030.80029	-531.76587	1127.56848	-1051.25354	-360.22318	1360.59192	-1051.71313	-310.77924	1206.70374	-960.84729	-552.63416	1226.30884	-1209.60107	-432.05179	1380.63953	-1283.99536	-473.62808	1194.35657	-1277.27332	-495.46249	1046.77405	-1298.65869	-472.16656	935.19775	-1275.99280	-410.89069	810.33710	-1301.34192	-465.97656	812.63464	-1304.18445	-430.73691	734.43744	-900.33490	-423.97433	1391.86621	-788.01898	-466.83942	1196.04297	-775.17944	-453.79715	1071.95056	-738.18842	-401.30341	963.99042	-751.55627	-294.95792	869.37701	-712.80414	-337.96094	861.89185	-710.22784	-283.42947	795.97845	-1132.33301	-351.11127	927.16864	-916.01306	-362.41019	921.16602	-1091.65491	-540.71851	938.68140	-946.79437	-546.21643	942.47412	-1182.23267	-314.00034	607.30524	-1159.72607	-299.21753	474.13766	-1171.76794	-320.11694	284.57242	-1115.86194	-322.64044	67.96764	-1065.16833	-368.92410	38.56518	-1112.66235	-174.60336	36.11704	-855.29529	-449.06009	589.17822	-869.96191	-469.99994	430.07581	-886.50818	-614.56866	326.12161	-944.86304	-749.13965	171.91287	-1006.75555	-792.80237	180.59354	-952.49963	-694.26691	35.11324	-1021.56598	-404.35818	1709.88416	-3102.16382	1972.94983	1024.10413	-3140.63110	2012.56213	1022.00092			 
